<?xml version="1.0" encoding="UTF-8" standalone="no"?>
<!-- Generator: Adobe Illustrator 16.0.0, SVG Export Plug-In . SVG Version: 6.00 Build 0)  -->

<svg
   version="1.1"
   id="Capa_1"
   x="0px"
   y="0px"
   width="242.539px"
   height="242.539px"
   viewBox="0 0 242.539 242.539"
   style="enable-background:new 0 0 242.539 242.539;"
   xml:space="preserve"
   sodipodi:docname="php.svg"
   inkscape:version="1.1.1 (1:1.1+202109281943+c3084ef5ed)"
   xmlns:inkscape="http://www.inkscape.org/namespaces/inkscape"
   xmlns:sodipodi="http://sodipodi.sourceforge.net/DTD/sodipodi-0.dtd"
   xmlns="http://www.w3.org/2000/svg"
   xmlns:svg="http://www.w3.org/2000/svg"><defs
   id="defs6366" /><sodipodi:namedview
   id="namedview6364"
   pagecolor="#ffffff"
   bordercolor="#999999"
   borderopacity="1"
   inkscape:pageshadow="0"
   inkscape:pageopacity="0"
   inkscape:pagecheckerboard="0"
   showgrid="false"
   inkscape:snap-global="false"
   inkscape:zoom="1.5101955"
   inkscape:cx="183.41996"
   inkscape:cy="125.81152"
   inkscape:window-width="1333"
   inkscape:window-height="744"
   inkscape:window-x="33"
   inkscape:window-y="0"
   inkscape:window-maximized="1"
   inkscape:current-layer="Capa_1" />

<g
   id="g6333">
</g>
<g
   id="g6335">
</g>
<g
   id="g6337">
</g>
<g
   id="g6339">
</g>
<g
   id="g6341">
</g>
<g
   id="g6343">
</g>
<g
   id="g6345">
</g>
<g
   id="g6347">
</g>
<g
   id="g6349">
</g>
<g
   id="g6351">
</g>
<g
   id="g6353">
</g>
<g
   id="g6355">
</g>
<g
   id="g6357">
</g>
<g
   id="g6359">
</g>
<g
   id="g6361">
</g>
<path
   style="fill:#000000"
   d="M 111.7695,180.04059 C 73.296649,177.76966 41.859949,167.00437 23.613869,149.85228 12.915789,139.79563 9.2694992,132.50876 9.2694992,121.18598 c 0,-7.06305 0.39825,-8.85102 3.2714598,-14.68733 6.93389,-14.084727 26.84421,-28.208047 50.22854,-35.629437 54.584731,-17.32333 125.125551,-7.54575 156.154921,21.64445 10.69938,10.065207 14.34508,17.352067 14.34508,28.672317 0,7.06305 -0.39825,8.85102 -3.27146,14.68733 -8.52672,17.32024 -34.5354,33.10473 -65.28521,39.62116 -16.60845,3.51962 -38.49496,5.39896 -52.94333,4.54612 z m -54.164901,-33.4969 1.33509,-7.64229 10.70875,-0.36653 c 9.06945,-0.31043 11.46602,-0.75625 15.65567,-2.91232 12.46079,-6.41254 18.354271,-24.97302 10.78571,-33.96774 -4.93504,-5.864957 -7.15368,-6.431447 -25.26564,-6.451037 l -16.44531,-0.0178 -5.74007,28.999997 c -3.15704,15.95 -5.76914,29.35806 -5.80468,29.79569 -0.0355,0.43763 2.97288,0.66263 6.68538,0.5 l 6.75,-0.29569 z m 5.80167,-29.60771 c 1.27186,-6.4625 2.32389,-11.8625 2.33785,-12 0.014,-0.1375 3.33969,-0.25 7.39052,-0.25 6.04215,0 7.86044,0.3896 10.12247,2.16891 2.55022,2.00601 2.71625,2.56693 2.21044,7.46777 -1.08712,10.53319 -5.73688,14.36332 -17.43703,14.36332 h -6.93672 z m 93.738841,36 c 0.28071,-0.9625 1.0336,-4.50666 1.67308,-7.8759 l 1.16269,-6.12591 10.64431,-0.4697 c 12.12985,-0.53526 16.19297,-1.89382 21.48192,-7.18277 4.54305,-4.54305 6.44852,-8.195 7.68913,-14.73674 1.67891,-8.85285 -1.30675,-15.74603 -8.52674,-19.686207 -2.43066,-1.32648 -6.13137,-1.64057 -19.5,-1.65498 l -16.5,-0.0178 -5.14553,25.999997 c -2.83004,14.3 -5.42286,27.6875 -5.76182,29.75 l -0.61629,3.75 h 6.44443 c 5.27646,0 6.53694,-0.31717 6.95482,-1.75 z m 4.95727,-25.89322 c 0.29449,-1.02123 1.26969,-5.68178 2.16712,-10.35678 2.51477,-13.10024 1.58755,-12 10.11284,-12 6.60634,0 7.7642,0.28613 9.93261,2.45454 3.82937,3.82937 2.6683,12.03628 -2.52513,17.84876 -2.7335,3.05933 -3.22938,3.21203 -11.53956,3.55348 -8.07219,0.33166 -8.64563,0.22609 -8.14788,-1.5 z m -51.47228,6.89322 c 0.56241,-2.6125 2.06135,-10.26215 3.33098,-16.99922 l 2.30842,-12.24923 7.05887,-7.7e-4 c 11.41792,-0.001 11.38103,-0.0793 8.14466,17.22697 -1.48694,7.95132 -2.70353,14.97789 -2.70353,15.6146 0,0.75596 2.2149,1.15765 6.38329,1.15765 h 6.38329 l 3.18027,-16.38 c 2.95302,-15.20958 3.07417,-16.63392 1.69549,-19.93359 -2.17704,-5.210367 -6.27903,-6.916157 -18.00064,-7.485437 l -9.8583,-0.4788 0.62399,-3.61108 c 0.34319,-1.9861 0.90626,-5.54674 1.25127,-7.91252 l 0.62729,-4.30143 -6.39298,0.30143 -6.39297,0.30143 -5.14553,25.999997 c -2.83004,14.3 -5.422861,27.6875 -5.761811,29.75 l -0.61629,3.75 h 6.430831 6.43083 z"
   id="path6437" /></svg>
