<?xml version="1.0" encoding="UTF-8" standalone="no"?>
<!-- Generator: Adobe Illustrator 16.0.0, SVG Export Plug-In . SVG Version: 6.00 Build 0)  -->

<svg
   version="1.1"
   id="Capa_1"
   x="0px"
   y="0px"
   width="438.53601"
   height="438.53601"
   viewBox="0 0 438.536 438.536"
   xml:space="preserve"
   xmlns="http://www.w3.org/2000/svg"
   xmlns:svg="http://www.w3.org/2000/svg"><defs
   id="defs991" />
















<path
   style="fill:#000000;stroke-width:0.857445"
   d="M 205.97761,437.51842 C 179.39712,432.56243 142.78422,418.06273 89.793845,391.50647 72.109046,382.64369 54.615903,373.62116 50.920205,371.4564 39.741131,364.90827 40.960135,386.07142 40.938321,198.16107 40.925291,85.589826 41.198599,35.206754 41.831487,33.531678 44.322064,26.939806 51.157966,23.991031 81.074094,16.60374 171.23229,-5.6593259 269.33252,-5.5303359 359.13312,16.969353 c 28.4047,7.116843 35.12135,10.077693 37.57141,16.562325 0.63289,1.675076 0.90623,52.058148 0.89316,164.629392 -0.0218,187.91197 1.19716,166.74994 -9.98188,173.29123 -13.25961,7.75873 -71.40911,36.34401 -90.46153,44.46932 -44.54484,18.99709 -71.22518,25.3168 -91.17667,21.5968 z m 33.13081,-27.73764 c 25.15536,-6.53951 66.98268,-24.53422 114.37375,-49.2052 l 18.41101,-9.58447 V 199.05236 47.113606 l -2.7867,-0.868645 C 357.92317,42.758992 337.01311,37.911088 319.16033,34.66517 250.30906,22.146924 178.61874,22.732186 110.37252,36.369662 97.241044,38.993693 80.190626,43.020487 72.430588,45.330402 l -5.787752,1.722828 0.0069,151.94578 0.0069,151.94578 5.352101,2.84668 c 42.282863,22.48947 88.149733,43.35297 114.548323,52.10469 24.04276,7.9707 34.0017,8.70687 52.55131,3.88462 z m -116.4996,-76.38259 c -2.0938,-0.95048 -4.35731,-2.845 -5.35582,-4.48276 -1.69666,-2.78284 -1.7294,-4.15153 -1.7294,-72.28957 0,-68.13804 0.0328,-69.50673 1.7294,-72.28958 2.53016,-4.14997 7.55038,-6.1249 15.62744,-6.14779 l 6.6452,-0.0189 0.008,-16.93454 c 0.004,-9.31399 0.38982,-21.25521 0.85729,-26.53604 2.51569,-28.41825 18.5285,-52.113228 43.72704,-64.705083 43.67686,-21.825589 96.06278,0.834267 110.93337,47.984913 2.82484,8.95681 3.94281,21.19232 3.95237,43.25621 l 0.007,16.93454 6.64519,0.0189 c 8.07707,0.0229 13.09728,1.99782 15.62745,6.14779 1.69666,2.78285 1.7294,4.15154 1.7294,72.28958 0,68.13804 -0.0328,69.50673 -1.7294,72.28957 -0.99851,1.63776 -3.26202,3.53228 -5.35582,4.48276 -3.50463,1.59091 -6.75116,1.64621 -96.65919,1.64621 -89.90802,0 -93.15455,-0.0553 -96.65918,-1.64621 z m 175.11539,-76.77233 v -52.30413 h -78.4562 -78.4562 l -0.22243,51.44668 c -0.12233,28.29568 -0.0372,51.93104 0.18919,52.52302 0.3269,0.85481 16.51874,1.03127 78.67862,0.85744 l 78.26702,-0.21888 z m -82.21241,28.72165 c -1.35852,-0.42148 -3.43396,-1.65437 -4.6121,-2.73976 -4.08978,-3.76785 -4.49337,-6.1078 -4.49337,-26.05197 0,-17.49297 0.10769,-18.75182 1.87274,-21.89231 1.97284,-3.51019 7.25736,-6.76201 10.98894,-6.76201 4.13594,0 9.22891,3.32648 11.1413,7.27697 1.70788,3.52802 1.79746,4.85772 1.55207,23.03902 -0.24195,17.92611 -0.38584,19.46273 -2.02829,21.66036 -3.73378,4.99585 -9.22975,7.08036 -14.42129,5.4697 z M 182.42594,160.37768 c 0.0358,-22.68581 0.71276,-27.92426 4.63422,-35.85879 5.15632,-10.43311 14.71693,-17.44173 26.55992,-19.47034 19.84236,-3.39885 39.07089,11.2386 41.71651,31.75611 0.40999,3.17957 0.75806,13.78743 0.77349,23.57302 l 0.028,17.79198 h 8.6656 8.6656 l -0.4176,-22.93665 c -0.46472,-25.52676 -0.97752,-28.64692 -6.44717,-39.22809 -3.72843,-7.21275 -13.82575,-17.736624 -20.75573,-21.632544 -15.59017,-8.764544 -34.38534,-9.266748 -50.47357,-1.34865 -8.71333,4.288408 -19.04038,14.419934 -23.5053,23.060244 -5.45935,10.56471 -5.95552,13.59872 -6.40223,39.14904 l -0.40102,22.93665 h 8.6656 8.6656 l 0.028,-17.79198 z m 47.8315,-2.14361 c -0.30378,-22.31595 -0.7151,-24.10006 -6.15094,-26.67953 -3.74022,-1.77484 -5.95288,-1.7672 -9.74799,0.0337 -5.53149,2.62486 -6.19681,5.56744 -6.21846,27.50327 l -0.0189,19.07815 h 11.20379 11.20381 z"
   id="path1229" /></svg>
