<?xml version="1.0" encoding="UTF-8" standalone="no"?>
<svg
   xmlns:dc="http://purl.org/dc/elements/1.1/"
   xmlns:cc="http://creativecommons.org/ns#"
   xmlns:rdf="http://www.w3.org/1999/02/22-rdf-syntax-ns#"
   xmlns:svg="http://www.w3.org/2000/svg"
   xmlns="http://www.w3.org/2000/svg"
   xmlns:sodipodi="http://sodipodi.sourceforge.net/DTD/sodipodi-0.dtd"
   xmlns:inkscape="http://www.inkscape.org/namespaces/inkscape"
   height="512pt"
   viewBox="0 0 512 512"
   width="512pt"
   version="1.1"
   id="svg930"
   sodipodi:docname="statistics.svg"
   inkscape:version="0.92.3 (2405546, 2018-03-11)">
  <metadata
     id="metadata936">
    <rdf:RDF>
      <cc:Work
         rdf:about="">
        <dc:format>image/svg+xml</dc:format>
        <dc:type
           rdf:resource="http://purl.org/dc/dcmitype/StillImage" />
        <dc:title></dc:title>
      </cc:Work>
    </rdf:RDF>
  </metadata>
  <defs
     id="defs934" />
  <sodipodi:namedview
     pagecolor="#ffffff"
     bordercolor="#666666"
     borderopacity="1"
     objecttolerance="10"
     gridtolerance="10"
     guidetolerance="10"
     inkscape:pageopacity="0"
     inkscape:pageshadow="2"
     inkscape:window-width="1360"
     inkscape:window-height="700"
     id="namedview932"
     showgrid="false"
     inkscape:zoom="0.77783203"
     inkscape:cx="341.33333"
     inkscape:cy="341.33335"
     inkscape:window-x="0"
     inkscape:window-y="0"
     inkscape:window-maximized="1"
     inkscape:current-layer="svg930" />
  <path
     d="m497 482h-16v-317c0-8.289062-6.710938-15-15-15h-60c-8.289062 0-15 6.710938-15 15v317h-30v-227c0-8.289062-6.710938-15-15-15h-60c-8.289062 0-15 6.710938-15 15v227h-30v-107c0-8.289062-6.710938-15-15-15h-60c-8.289062 0-15 6.710938-15 15v107h-30v-167c0-8.289062-6.710938-15-15-15h-60c-8.289062 0-15 6.710938-15 15v167h-16c-8.289062 0-15 6.710938-15 15s6.710938 15 15 15h482c8.289062 0 15-6.710938 15-15s-6.710938-15-15-15zm0 0"
     id="path928" />
</svg>
